<svg width="315" height="129" viewBox="0 0 315 129" fill="none" xmlns="http://www.w3.org/2000/svg">
<rect width="40" height="40" rx="5" fill="#919191"/>
<path d="M22.3651 11.5455V29H20.2514V13.7614H20.1491L15.8878 16.5909V14.4432L20.2514 11.5455H22.3651Z" fill="white"/>
<rect x="55" width="40" height="40" rx="5" fill="#919191"/>
<path d="M70.0412 29V27.4659L75.8026 21.1591C76.4787 20.4205 77.0355 19.7784 77.473 19.233C77.9105 18.6818 78.2344 18.1648 78.4446 17.6818C78.6605 17.1932 78.7685 16.6818 78.7685 16.1477C78.7685 15.5341 78.6207 15.0028 78.3253 14.554C78.0355 14.1051 77.6378 13.7585 77.1321 13.5142C76.6264 13.2699 76.0582 13.1477 75.4276 13.1477C74.7571 13.1477 74.1719 13.2869 73.6719 13.5653C73.1776 13.8381 72.794 14.2216 72.5213 14.7159C72.2543 15.2102 72.1207 15.7898 72.1207 16.4545H70.1094C70.1094 15.4318 70.3452 14.5341 70.8168 13.7614C71.2884 12.9886 71.9304 12.3864 72.7429 11.9545C73.5611 11.5227 74.4787 11.3068 75.4957 11.3068C76.5185 11.3068 77.4247 11.5227 78.2145 11.9545C79.0043 12.3864 79.6236 12.9687 80.0724 13.7017C80.5213 14.4347 80.7457 15.25 80.7457 16.1477C80.7457 16.7898 80.6293 17.4176 80.3963 18.0312C80.169 18.6392 79.7713 19.3182 79.2031 20.0682C78.6406 20.8125 77.8594 21.7216 76.8594 22.7955L72.9389 26.9886V27.125H81.0526V29H70.0412Z" fill="white"/>
<rect x="110" width="40" height="40" rx="5" fill="#919191"/>
<path d="M130.064 29.2386C128.939 29.2386 127.936 29.0455 127.055 28.6591C126.18 28.2727 125.484 27.7358 124.967 27.0483C124.456 26.3551 124.178 25.5511 124.132 24.6364H126.28C126.325 25.1989 126.518 25.6847 126.859 26.0938C127.2 26.4972 127.646 26.8097 128.197 27.0312C128.749 27.2528 129.359 27.3636 130.03 27.3636C130.78 27.3636 131.445 27.233 132.024 26.9716C132.604 26.7102 133.058 26.3466 133.388 25.8807C133.717 25.4148 133.882 24.875 133.882 24.2614C133.882 23.6193 133.723 23.054 133.405 22.5653C133.087 22.071 132.621 21.6847 132.007 21.4062C131.393 21.1278 130.643 20.9886 129.757 20.9886H128.359V19.1136H129.757C130.45 19.1136 131.058 18.9886 131.581 18.7386C132.109 18.4886 132.521 18.1364 132.817 17.6818C133.118 17.2273 133.268 16.6932 133.268 16.0795C133.268 15.4886 133.138 14.9744 132.876 14.5369C132.615 14.0994 132.246 13.7585 131.768 13.5142C131.297 13.2699 130.74 13.1477 130.098 13.1477C129.496 13.1477 128.928 13.2585 128.393 13.4801C127.865 13.696 127.433 14.0114 127.098 14.4261C126.763 14.8352 126.581 15.3295 126.553 15.9091H124.507C124.541 14.9943 124.817 14.1932 125.334 13.5057C125.851 12.8125 126.527 12.2727 127.362 11.8864C128.203 11.5 129.126 11.3068 130.132 11.3068C131.212 11.3068 132.138 11.5256 132.911 11.9631C133.683 12.3949 134.277 12.9659 134.692 13.6761C135.107 14.3864 135.314 15.1534 135.314 15.9773C135.314 16.9602 135.055 17.7983 134.538 18.4915C134.027 19.1847 133.331 19.6648 132.45 19.9318V20.0682C133.553 20.25 134.413 20.7187 135.033 21.4744C135.652 22.2244 135.962 23.1534 135.962 24.2614C135.962 25.2102 135.703 26.0625 135.186 26.8182C134.675 27.5682 133.976 28.1591 133.089 28.5909C132.203 29.0227 131.195 29.2386 130.064 29.2386Z" fill="white"/>
<rect x="165" width="40" height="40" rx="5" fill="#919191"/>
<path d="M178.699 25.4205V23.6818L186.369 11.5455H187.63V14.2386H186.778L180.983 23.4091V23.5455H191.312V25.4205H178.699ZM186.914 29V24.892V24.0824V11.5455H188.926V29H186.914Z" fill="white"/>
<rect y="89" width="40" height="40" rx="5" fill="#919191"/>
<path d="M19.3022 120.182V98.3636H20.6999V120.182H19.3022ZM24.0067 104.909C23.9045 104.045 23.4897 103.375 22.7624 102.898C22.0352 102.42 21.1431 102.182 20.0863 102.182C19.3136 102.182 18.6374 102.307 18.0579 102.557C17.484 102.807 17.0352 103.151 16.7113 103.588C16.3931 104.026 16.234 104.523 16.234 105.08C16.234 105.545 16.3448 105.946 16.5664 106.281C16.7937 106.611 17.0835 106.886 17.4357 107.108C17.788 107.324 18.1573 107.503 18.5437 107.645C18.93 107.781 19.2852 107.892 19.609 107.977L21.3817 108.455C21.8363 108.574 22.342 108.739 22.8988 108.949C23.4613 109.159 23.9982 109.446 24.5096 109.81C25.0266 110.168 25.4528 110.628 25.788 111.19C26.1232 111.753 26.2908 112.443 26.2908 113.261C26.2908 114.205 26.0437 115.057 25.5494 115.818C25.0607 116.58 24.3448 117.185 23.4016 117.634C22.4641 118.082 21.3249 118.307 19.984 118.307C18.734 118.307 17.6516 118.105 16.7369 117.702C15.8278 117.298 15.1119 116.736 14.5891 116.014C14.0721 115.293 13.7795 114.455 13.7113 113.5H15.8931C15.9499 114.159 16.1715 114.705 16.5579 115.136C16.9499 115.562 17.4442 115.881 18.0408 116.091C18.6431 116.295 19.2908 116.398 19.984 116.398C20.7908 116.398 21.5153 116.267 22.1573 116.006C22.7994 115.739 23.3079 115.369 23.6829 114.898C24.0579 114.42 24.2454 113.864 24.2454 113.227C24.2454 112.648 24.0835 112.176 23.7596 111.812C23.4357 111.449 23.0096 111.153 22.4812 110.926C21.9528 110.699 21.3817 110.5 20.7681 110.33L18.6204 109.716C17.2567 109.324 16.1772 108.764 15.3817 108.037C14.5863 107.31 14.1886 106.358 14.1886 105.182C14.1886 104.205 14.4528 103.352 14.9812 102.625C15.5153 101.892 16.2312 101.324 17.1289 100.92C18.0323 100.511 19.0408 100.307 20.1545 100.307C21.2795 100.307 22.2795 100.509 23.1545 100.912C24.0295 101.31 24.7227 101.855 25.234 102.548C25.7511 103.241 26.0238 104.028 26.0522 104.909H24.0067Z" fill="white"/>
<rect x="55" y="89" width="40" height="40" rx="5" fill="#919191"/>
<path d="M77.3651 100.545V118H75.2514V102.761H75.1491L70.8878 105.591V103.443L75.2514 100.545H77.3651Z" fill="white"/>
<rect x="110" y="89" width="40" height="40" rx="5" fill="#919191"/>
<path d="M131.978 115.614L131.841 116.534C131.745 117.182 131.597 117.875 131.398 118.614C131.205 119.352 131.003 120.048 130.793 120.702C130.583 121.355 130.409 121.875 130.273 122.261H128.739C128.813 121.898 128.909 121.418 129.029 120.821C129.148 120.224 129.267 119.557 129.387 118.818C129.512 118.085 129.614 117.335 129.694 116.568L129.796 115.614H131.978Z" fill="white"/>
<rect x="165" y="89" width="40" height="40" rx="5" fill="#919191"/>
<path d="M180.041 118V116.466L185.803 110.159C186.479 109.42 187.036 108.778 187.473 108.233C187.911 107.682 188.234 107.165 188.445 106.682C188.661 106.193 188.768 105.682 188.768 105.148C188.768 104.534 188.621 104.003 188.325 103.554C188.036 103.105 187.638 102.759 187.132 102.514C186.626 102.27 186.058 102.148 185.428 102.148C184.757 102.148 184.172 102.287 183.672 102.565C183.178 102.838 182.794 103.222 182.521 103.716C182.254 104.21 182.121 104.79 182.121 105.455H180.109C180.109 104.432 180.345 103.534 180.817 102.761C181.288 101.989 181.93 101.386 182.743 100.955C183.561 100.523 184.479 100.307 185.496 100.307C186.518 100.307 187.425 100.523 188.214 100.955C189.004 101.386 189.624 101.969 190.072 102.702C190.521 103.435 190.746 104.25 190.746 105.148C190.746 105.79 190.629 106.418 190.396 107.031C190.169 107.639 189.771 108.318 189.203 109.068C188.641 109.812 187.859 110.722 186.859 111.795L182.939 115.989V116.125H191.053V118H180.041Z" fill="white"/>
<rect x="220" y="89" width="40" height="40" rx="5" fill="#919191"/>
<path d="M240.064 118.239C238.939 118.239 237.936 118.045 237.055 117.659C236.18 117.273 235.484 116.736 234.967 116.048C234.456 115.355 234.178 114.551 234.132 113.636H236.28C236.325 114.199 236.518 114.685 236.859 115.094C237.2 115.497 237.646 115.81 238.197 116.031C238.749 116.253 239.359 116.364 240.03 116.364C240.78 116.364 241.445 116.233 242.024 115.972C242.604 115.71 243.058 115.347 243.388 114.881C243.717 114.415 243.882 113.875 243.882 113.261C243.882 112.619 243.723 112.054 243.405 111.565C243.087 111.071 242.621 110.685 242.007 110.406C241.393 110.128 240.643 109.989 239.757 109.989H238.359V108.114H239.757C240.45 108.114 241.058 107.989 241.581 107.739C242.109 107.489 242.521 107.136 242.817 106.682C243.118 106.227 243.268 105.693 243.268 105.08C243.268 104.489 243.138 103.974 242.876 103.537C242.615 103.099 242.246 102.759 241.768 102.514C241.297 102.27 240.74 102.148 240.098 102.148C239.496 102.148 238.928 102.259 238.393 102.48C237.865 102.696 237.433 103.011 237.098 103.426C236.763 103.835 236.581 104.33 236.553 104.909H234.507C234.541 103.994 234.817 103.193 235.334 102.506C235.851 101.812 236.527 101.273 237.362 100.886C238.203 100.5 239.126 100.307 240.132 100.307C241.212 100.307 242.138 100.526 242.911 100.963C243.683 101.395 244.277 101.966 244.692 102.676C245.107 103.386 245.314 104.153 245.314 104.977C245.314 105.96 245.055 106.798 244.538 107.491C244.027 108.185 243.331 108.665 242.45 108.932V109.068C243.553 109.25 244.413 109.719 245.033 110.474C245.652 111.224 245.962 112.153 245.962 113.261C245.962 114.21 245.703 115.062 245.186 115.818C244.675 116.568 243.976 117.159 243.089 117.591C242.203 118.023 241.195 118.239 240.064 118.239Z" fill="white"/>
<rect x="275" y="89" width="40" height="40" rx="5" fill="#919191"/>
<path d="M288.699 114.42V112.682L296.369 100.545H297.63V103.239H296.778L290.983 112.409V112.545H301.312V114.42H288.699ZM296.914 118V113.892V113.082V100.545H298.926V118H296.914Z" fill="white"/>
<path d="M295 85L297.444 73.7145L286.448 77.2411L295 85ZM184 44C184 47.5586 185.582 50.3837 188.275 52.601C190.932 54.7884 194.677 56.3962 199.095 57.6337C207.931 60.1089 219.845 61.2026 232.163 62.2066C244.532 63.2147 257.339 64.1337 268.123 66.2327C273.511 67.2813 278.351 68.6172 282.353 70.3852C286.358 72.1551 289.459 74.3304 291.446 77.022L293.055 75.8342C290.788 72.7627 287.347 70.4056 283.161 68.5558C278.971 66.7042 273.97 65.3331 268.505 64.2695C257.585 62.144 244.643 61.2171 232.326 60.2132C219.958 59.2053 208.25 58.1211 199.635 55.7079C195.327 54.5012 191.89 52.9871 189.546 51.057C187.238 49.1567 186 46.8685 186 44H184Z" fill="#BEBEBE"/>
<path d="M240 85L242.444 73.7145L231.448 77.2411L240 85ZM129 44C129 47.5586 130.582 50.3837 133.275 52.601C135.932 54.7884 139.677 56.3962 144.095 57.6337C152.931 60.1089 164.845 61.2026 177.163 62.2066C189.532 63.2147 202.339 64.1337 213.123 66.2327C218.511 67.2813 223.351 68.6172 227.353 70.3852C231.358 72.1551 234.459 74.3304 236.446 77.022L238.055 75.8342C235.788 72.7627 232.347 70.4056 228.161 68.5558C223.971 66.7042 218.97 65.3331 213.505 64.2695C202.585 62.144 189.643 61.2171 177.326 60.2132C164.958 59.2053 153.25 58.1211 144.635 55.7079C140.327 54.5012 136.89 52.9871 134.546 51.057C132.238 49.1567 131 46.8685 131 44H129Z" fill="#BEBEBE"/>
<path d="M185 85L187.444 73.7145L176.448 77.2411L185 85ZM74 44C74 47.5586 75.5818 50.3837 78.2749 52.601C80.9318 54.7884 84.6774 56.3962 89.0953 57.6337C97.9312 60.1089 109.845 61.2026 122.163 62.2066C134.532 63.2147 147.339 64.1337 158.123 66.2327C163.511 67.2813 168.351 68.6172 172.353 70.3852C176.358 72.1551 179.459 74.3304 181.446 77.022L183.055 75.8342C180.788 72.7627 177.347 70.4056 173.161 68.5558C168.971 66.7042 163.97 65.3331 158.505 64.2695C147.585 62.144 134.643 61.2171 122.326 60.2132C109.958 59.2053 98.2497 58.1211 89.6348 55.7079C85.3273 54.5012 81.8904 52.9871 79.5461 51.057C77.2381 49.1567 76 46.8685 76 44H74Z" fill="#BEBEBE"/>
<path d="M75 85L79.0386 74.1823L67.6509 76.0936L75 85ZM19 44C19 47.3498 19.7334 50.0833 21.0826 52.3184C22.4305 54.5513 24.3538 56.2218 26.633 57.509C31.1439 60.0567 37.1907 61.1724 43.2973 62.1701C49.4839 63.1809 55.774 64.0755 61.0841 66.102C66.3553 68.1136 70.5181 71.1893 72.5784 76.4871L74.4424 75.7622C72.1071 69.7572 67.3834 66.3652 61.7972 64.2334C56.2499 62.1164 49.7119 61.1916 43.6198 60.1963C37.4477 59.1879 31.7652 58.1106 27.6165 55.7676C25.5659 54.6094 23.9268 53.1601 22.7948 51.2848C21.6641 49.4118 21 47.0489 21 44H19Z" fill="#BEBEBE"/>
</svg>
